<svg xmlns="http://www.w3.org/2000/svg" width="58" height="58" fill="none" style=""><rect id="backgroundrect" width="100%" height="100%" x="0" y="0" fill="none" stroke="none" style="" class=""/>

<g class="currentLayer" style=""><title>Layer 1</title><path d="M28.75,1.1102230246251565e-16 C12.88,1.1102230246251565e-16 1.1102230246251565e-16,12.88 1.1102230246251565e-16,28.75 C1.1102230246251565e-16,44.62 12.88,57.5 28.75,57.5 C44.62,57.5 57.5,44.62 57.5,28.75 C57.5,12.88 44.62,1.1102230246251565e-16 28.75,1.1102230246251565e-16 zM28.75,8.625 C33.5225,8.625 37.375,12.4775 37.375,17.25 C37.375,22.0225 33.5225,25.875 28.75,25.875 C23.9775,25.875 20.125,22.0225 20.125,17.25 C20.125,12.4775 23.9775,8.625 28.75,8.625 zM28.75,49.45 C21.5625,49.45 15.2087,45.77 11.5,40.1925 C11.5863,34.4712 23,31.3375 28.75,31.3375 C34.4712,31.3375 45.9137,34.4712 46,40.1925 C42.2912,45.77 35.9375,49.45 28.75,49.45 z" fill="#1e214d" id="svg_1" class="selected" fill-opacity="1"/></g></svg>