<svg width="54" height="36" viewBox="0 0 54 36" fill="none" xmlns="http://www.w3.org/2000/svg">
<path fill-rule="evenodd" clip-rule="evenodd" d="M44.903 33.4487C43.889 34.4251 42.5444 35.053 41.0629 35.159L36.9682 35.452C28.3336 36.0697 19.6659 36.0697 11.0313 35.452L7.24628 35.1812C4.25621 34.9673 1.78994 32.7568 1.25114 29.8079C0.159483 23.8332 -0.0274086 17.7282 0.69674 11.6979L1.37795 6.0251C1.78222 2.65857 4.63823 0.125 8.02895 0.125H13.7579C16.5522 0.125 18.8804 2.12115 19.3942 4.7653L40.1803 4.7653C43.4462 4.7653 46.228 7.13833 46.7428 10.3634L46.9029 11.367C46.9366 11.5778 46.969 11.7889 47.0003 12H47.8402C51.5213 12 54.052 15.6996 52.7178 19.1303L49.5942 27.1624C48.6243 29.6566 46.997 31.8253 44.903 33.4487ZM43.0396 10.9545L43.1998 11.958C43.2021 11.972 43.2043 11.986 43.2065 12H19.9258C17.0866 12 14.5394 13.7454 13.5144 16.3932L7.68482 31.453L7.51388 31.4408C6.23019 31.3489 5.17139 30.3999 4.94007 29.1339C3.91599 23.529 3.74067 17.802 4.41999 12.145L5.1012 6.4722C5.27916 4.99027 6.53636 3.875 8.02895 3.875H13.7579C14.858 3.875 15.7498 4.76681 15.7498 5.86692C15.7498 7.32958 16.9355 8.5153 18.3982 8.5153H40.1803C41.6033 8.5153 42.8153 9.54926 43.0396 10.9545ZM11.5977 31.7327C19.9553 32.3165 28.3438 32.3094 36.7006 31.7115L40.7953 31.4186L41.2818 31.3731L41.2784 31.367C43.4797 30.1249 45.1831 28.159 46.0992 25.8032L49.2228 17.7711C49.601 16.7987 48.8836 15.75 47.8402 15.75H19.9258C18.6353 15.75 17.4774 16.5433 17.0116 17.7469L11.5977 31.7327Z" fill="white"/>
</svg>
