<svg width="41" height="40" viewBox="0 0 41 40" fill="none" xmlns="http://www.w3.org/2000/svg">
<path fill-rule="evenodd" clip-rule="evenodd" d="M3.25396 26.9599C-1.99105 14.0857 7.48019 0 21.3818 0H22.1317C32.5282 0 40.9562 8.42802 40.9562 18.8245C40.9562 30.3997 31.5726 39.7833 19.9974 39.7833H1.7501C1.0075 39.7833 0.345758 39.3147 0.0992935 38.6141C-0.147171 37.9136 0.0753132 37.1339 0.654313 36.6689L5.25446 32.9745C5.4556 32.813 5.52675 32.5385 5.42942 32.2996L3.25396 26.9599ZM21.3818 3.5C9.96584 3.5 2.1881 15.0672 6.49528 25.6393L8.67074 30.9791C9.35207 32.6514 8.85401 34.5727 7.44603 35.7035L6.72399 36.2833H19.9974C29.6397 36.2833 37.4562 28.4667 37.4562 18.8245C37.4562 10.361 30.5952 3.5 22.1317 3.5H21.3818Z" fill="white"/>
</svg>
