<svg width="45" height="45" viewBox="0 0 45 45" fill="none" xmlns="http://www.w3.org/2000/svg">
<path fill-rule="evenodd" clip-rule="evenodd" d="M14.6436 3.88252C11.5715 3.53916 8.3914 3.53916 5.31929 3.88252C4.57281 3.96595 3.98411 4.55704 3.90015 5.27493C3.53328 8.41162 3.53328 11.5804 3.90015 14.7171C3.98411 15.435 4.57281 16.0261 5.31929 16.1095C8.3914 16.4528 11.5715 16.4528 14.6436 16.1095C15.3901 16.0261 15.9788 15.435 16.0628 14.7171C16.4296 11.5804 16.4296 8.41162 16.0628 5.27493C15.9788 4.55704 15.3901 3.96595 14.6436 3.88252ZM4.91665 0.279946C8.25636 -0.0933153 11.7066 -0.0933153 15.0463 0.279946C17.4408 0.54757 19.38 2.43254 19.6632 4.85382C20.0628 8.27029 20.0628 11.7217 19.6632 15.1382C19.38 17.5595 17.4408 19.4444 15.0463 19.7121C11.7066 20.0853 8.25636 20.0853 4.91665 19.7121C2.52212 19.4444 0.582882 17.5595 0.299691 15.1382C-0.0998969 11.7217 -0.0998969 8.2703 0.299691 4.85382C0.582882 2.43254 2.52212 0.54757 4.91665 0.279946Z" fill="white"/>
<path fill-rule="evenodd" clip-rule="evenodd" d="M14.6436 28.0492C11.5715 27.7058 8.3914 27.7058 5.31929 28.0492C4.57281 28.1326 3.98411 28.7237 3.90015 29.4416C3.53328 32.5783 3.53328 35.747 3.90015 38.8837C3.98411 39.6016 4.57281 40.1927 5.31929 40.2762C8.3914 40.6195 11.5715 40.6195 14.6436 40.2762C15.3901 40.1927 15.9788 39.6016 16.0628 38.8837C16.4296 35.747 16.4296 32.5783 16.0628 29.4416C15.9788 28.7237 15.3901 28.1326 14.6436 28.0492ZM4.91665 24.4466C8.25636 24.0734 11.7066 24.0734 15.0463 24.4466C17.4408 24.7142 19.38 26.5992 19.6632 29.0205C20.0628 32.437 20.0628 35.8884 19.6632 39.3048C19.38 41.7261 17.4408 43.6111 15.0463 43.8787C11.7066 44.252 8.25636 44.252 4.91665 43.8787C2.52212 43.6111 0.582882 41.7261 0.299691 39.3048C-0.0998969 35.8884 -0.0998969 32.437 0.299691 29.0205C0.582882 26.5992 2.52212 24.7142 4.91665 24.4466Z" fill="white"/>
<path fill-rule="evenodd" clip-rule="evenodd" d="M38.8103 3.88252C35.7382 3.53916 32.5581 3.53916 29.486 3.88252C28.7395 3.96595 28.1508 4.55704 28.0668 5.27493C27.7 8.41162 27.7 11.5804 28.0668 14.7171C28.1508 15.435 28.7395 16.0261 29.486 16.1095C32.5581 16.4528 35.7382 16.4528 38.8103 16.1095C39.5568 16.0261 40.1455 15.435 40.2294 14.7171C40.5963 11.5804 40.5963 8.41162 40.2294 5.27493C40.1455 4.55704 39.5568 3.96595 38.8103 3.88252ZM29.0833 0.279946C32.423 -0.0933153 35.8732 -0.0933153 39.2129 0.279946C41.6075 0.54757 43.5467 2.43254 43.8299 4.85382C44.2295 8.27029 44.2295 11.7217 43.8299 15.1382C43.5467 17.5595 41.6075 19.4444 39.2129 19.7121C35.8732 20.0853 32.423 20.0853 29.0833 19.7121C26.6888 19.4444 24.7496 17.5595 24.4664 15.1382C24.0668 11.7217 24.0668 8.2703 24.4664 4.85382C24.7496 2.43254 26.6888 0.54757 29.0833 0.279946Z" fill="white"/>
<path fill-rule="evenodd" clip-rule="evenodd" d="M38.8103 28.0492C35.7382 27.7058 32.5581 27.7058 29.486 28.0492C28.7395 28.1326 28.1508 28.7237 28.0668 29.4416C27.7 32.5783 27.7 35.747 28.0668 38.8837C28.1508 39.6016 28.7395 40.1927 29.486 40.2762C32.5581 40.6195 35.7382 40.6195 38.8103 40.2762C39.5568 40.1927 40.1455 39.6016 40.2294 38.8837C40.5963 35.747 40.5963 32.5783 40.2294 29.4416C40.1455 28.7237 39.5568 28.1326 38.8103 28.0492ZM29.0833 24.4466C32.423 24.0734 35.8732 24.0734 39.2129 24.4466C41.6075 24.7142 43.5467 26.5992 43.8299 29.0205C44.2295 32.437 44.2295 35.8884 43.8299 39.3048C43.5467 41.7261 41.6075 43.6111 39.2129 43.8787C35.8732 44.252 32.423 44.252 29.0833 43.8787C26.6888 43.6111 24.7496 41.7261 24.4664 39.3048C24.0668 35.8884 24.0668 32.437 24.4664 29.0205C24.7496 26.5992 26.6888 24.7142 29.0833 24.4466Z" fill="white"/>
</svg>
