<svg width="49" height="50" viewBox="0 0 49 50" fill="none" xmlns="http://www.w3.org/2000/svg">
<path fill-rule="evenodd" clip-rule="evenodd" d="M26.9826 1.6806C25.2488 0.775733 22.8996 0.761771 21.152 1.6643C14.4535 5.12376 8.37785 9.09029 3.05366 13.4897C2.23034 14.17 1.64604 15.1587 1.65601 16.3223C1.66594 17.4812 2.26212 18.4566 3.08045 19.1257C8.3604 23.4429 14.4411 27.413 21.0169 30.8451C22.7507 31.7499 25.0999 31.7639 26.8475 30.8614C33.546 27.4019 39.6216 23.4354 44.9458 19.0359C45.7692 18.3556 46.3534 17.367 46.3435 16.2033C46.3336 15.0445 45.7374 14.0691 44.919 13.4C39.6391 9.08276 33.5584 5.11265 26.9826 1.6806ZM22.9301 5.10725C23.5493 4.7875 24.5663 4.79053 25.1896 5.11586C31.4654 8.39131 37.248 12.1596 42.2576 16.2298C37.2181 20.3656 31.4527 24.1217 25.0694 27.4184C24.4502 27.7382 23.4332 27.7351 22.8099 27.4098C16.5341 24.1343 10.7515 20.366 5.74185 16.2958C10.7814 12.1601 16.5468 8.40395 22.9301 5.10725Z" fill="white"/>
<path d="M47.7587 25.8032C48.3254 26.7108 48.049 27.906 47.1413 28.4727L31.3643 38.3227C29.2234 39.6593 26.5672 40.2773 23.9995 40.2774C21.4318 40.2776 18.7755 39.6599 16.6343 38.3236L1.03012 28.5851C0.12235 28.0185 -0.154276 26.8234 0.412261 25.9156C0.978797 25.0078 2.17396 24.7312 3.08173 25.2978L18.6859 35.0363C20.0916 35.9136 22.0012 36.4026 23.9993 36.4024C25.9974 36.4023 27.9068 35.9131 29.3122 35.0357L45.0892 25.1857C45.9969 24.619 47.1921 24.8955 47.7587 25.8032Z" fill="white"/>
<path d="M47.7586 35.5027C48.3254 36.4103 48.0491 37.6055 47.1415 38.1723L33.4785 46.7047C30.7463 48.4109 27.3286 49.2137 23.9994 49.2139C20.6702 49.2141 17.2523 48.4117 14.5197 46.7059L1.02992 38.2847C0.12222 37.718 -0.154262 36.5228 0.412384 35.6151C0.979029 34.7074 2.17422 34.4309 3.08193 34.9976L16.5717 43.4188C18.5687 44.6654 21.2397 45.3391 23.9992 45.3389C26.7587 45.3387 29.4294 44.6648 31.426 43.4179L45.089 34.8856C45.9966 34.3188 47.1918 34.595 47.7586 35.5027Z" fill="white"/>
</svg>
