<svg width="44" height="49" viewBox="0 0 44 49" fill="none" xmlns="http://www.w3.org/2000/svg">
<path d="M12 12.5811C12 11.484 12.8954 10.5946 14 10.5946H32.6667C33.7712 10.5946 34.6667 11.484 34.6667 12.5811C34.6667 13.6782 33.7712 14.5676 32.6667 14.5676H14C12.8954 14.5676 12 13.6782 12 12.5811Z" fill="white"/>
<path d="M14 18.5405C12.8954 18.5405 12 19.4299 12 20.527C12 21.6241 12.8954 22.5135 14 22.5135H27.3333C28.4379 22.5135 29.3333 21.6241 29.3333 20.527C29.3333 19.4299 28.4379 18.5405 27.3333 18.5405H14Z" fill="white"/>
<path fill-rule="evenodd" clip-rule="evenodd" d="M12.6667 0C5.67106 0 0 5.63274 0 12.5811V39.0676C0 44.5531 4.47715 49 10 49H39.3333C41.9107 49 44 46.9248 44 44.3649V4.63514C44 2.07522 41.9107 0 39.3333 0H12.6667ZM40 29.1351V4.63514C40 4.26943 39.7015 3.97297 39.3333 3.97297H12.6667C7.8802 3.97297 4 7.82696 4 12.5811V31.1209C5.67132 29.874 7.74879 29.1351 10 29.1351H40ZM40 33.1081H10C6.68629 33.1081 4 35.7763 4 39.0676C4 42.3589 6.68629 45.027 10 45.027H39.3333C39.7015 45.027 40 44.7306 40 44.3649V33.1081Z" fill="white"/>
</svg>
