<svg width="39" height="39" viewBox="0 0 39 39" fill="none" xmlns="http://www.w3.org/2000/svg">
<path d="M0 4.33333V34.6667C0 37.05 1.92833 39 4.33333 39H34.6667C37.05 39 39 37.05 39 34.6667V4.33333C39 1.95 37.05 0 34.6667 0H4.33333C1.92833 0 0 1.95 0 4.33333ZM26 13C26 16.5967 23.0967 19.5 19.5 19.5C15.9033 19.5 13 16.5967 13 13C13 9.40333 15.9033 6.5 19.5 6.5C23.0967 6.5 26 9.40333 26 13ZM6.5 30.3333C6.5 26 15.1667 23.6167 19.5 23.6167C23.8333 23.6167 32.5 26 32.5 30.3333V32.5H6.5V30.3333Z" fill="#EDEDED"/>
</svg>
