<svg width="49" height="49" viewBox="0 0 49 49" fill="none" xmlns="http://www.w3.org/2000/svg">
<path d="M42.875 0H6.125C2.74706 0 0 2.74706 0 6.125V42.875C0 46.2529 2.74706 49 6.125 49H24.5V32.1562H18.375V24.5H24.5V18.375C24.5 15.9383 25.468 13.6014 27.191 11.8785C28.9139 10.1555 31.2508 9.1875 33.6875 9.1875H39.8125V16.8438H36.75C35.0595 16.8438 33.6875 16.6845 33.6875 18.375V24.5H41.3438L38.2812 32.1562H33.6875V49H42.875C46.2529 49 49 46.2529 49 42.875V6.125C49 2.74706 46.2529 0 42.875 0Z" fill="#1E204C"/>
</svg>
