<svg width="37" height="38" viewBox="0 0 37 38" fill="none" xmlns="http://www.w3.org/2000/svg">
<path d="M32.6454 20.8604C32.7247 20.2667 32.7643 19.6531 32.7643 19C32.7643 18.3667 32.7247 17.7333 32.6256 17.1396L36.6474 14.0125C37.004 13.7354 37.103 13.201 36.8851 12.8052L33.0813 6.23438C32.8435 5.79896 32.3483 5.66042 31.9124 5.79896L27.1774 7.69896C26.1869 6.94687 25.1369 6.31354 23.968 5.83854L23.2548 0.811458C23.1755 0.336458 22.7793 0 22.3038 0H14.6962C14.2207 0 13.8443 0.336458 13.765 0.811458L13.0518 5.83854C11.883 6.31354 10.8131 6.96667 9.84237 7.69896L5.10741 5.79896C4.67156 5.64062 4.17627 5.79896 3.93853 6.23438L0.154531 12.8052C-0.0832077 13.2208 -0.00396184 13.7354 0.392269 14.0125L4.41401 17.1396C4.31495 17.7333 4.2357 18.3865 4.2357 19C4.2357 19.6135 4.27533 20.2667 4.37438 20.8604L0.352646 23.9875C-0.00396181 24.2646 -0.103019 24.799 0.114908 25.1948L3.91872 31.7656C4.15646 32.201 4.65175 32.3396 5.0876 32.201L9.82255 30.301C10.8131 31.0531 11.8631 31.6865 13.032 32.1615L13.7452 37.1885C13.8443 37.6635 14.2207 38 14.6962 38H22.3038C22.7793 38 23.1755 37.6635 23.235 37.1885L23.9482 32.1615C25.117 31.6865 26.1869 31.0531 27.1576 30.301L31.8926 32.201C32.3284 32.3594 32.8237 32.201 33.0615 31.7656L36.8653 25.1948C37.103 24.7594 37.004 24.2646 36.6275 23.9875L32.6454 20.8604ZM18.5 26.125C14.5773 26.125 11.3679 22.9188 11.3679 19C11.3679 15.0813 14.5773 11.875 18.5 11.875C22.4227 11.875 25.6321 15.0813 25.6321 19C25.6321 22.9188 22.4227 26.125 18.5 26.125Z" fill="#EDEDED"/>
</svg>
