<svg width="52" height="51" viewBox="0 0 52 51" fill="none" xmlns="http://www.w3.org/2000/svg">
<path d="M25.9999 0C19.8262 0.000257437 13.854 2.20955 9.15192 6.23256C4.44985 10.2556 1.32476 15.8298 0.335815 21.9578C-0.653134 28.0858 0.558593 34.3677 3.75418 39.6796C6.94977 44.9914 11.9207 48.9865 17.7775 50.95C19.0775 51.1788 19.565 50.3944 19.565 49.7081C19.565 49.0871 19.5325 47.0282 19.5325 44.8386C13 46.0478 11.31 43.2373 10.79 41.7666C10.213 40.3363 9.29832 39.0688 8.12501 38.0736C7.21502 37.5834 5.91503 36.3742 8.09249 36.3415C8.92393 36.4323 9.72137 36.7232 10.4172 37.1897C11.1131 37.6562 11.6869 38.2845 12.09 39.0213C12.4456 39.6637 12.9237 40.2292 13.4971 40.6854C14.0704 41.1417 14.7276 41.4796 15.431 41.68C16.1345 41.8804 16.8703 41.9392 17.5964 41.8531C18.3225 41.767 19.0246 41.5377 19.6624 41.1783C19.7749 39.8491 20.364 38.6064 21.3199 37.6815C15.535 37.0279 9.49 34.7728 9.49 24.7724C9.45347 22.174 10.407 19.66 12.155 17.746C11.3601 15.4876 11.4531 13.0092 12.415 10.8176C12.415 10.8176 14.5924 10.1312 19.5649 13.4974C23.8193 12.3208 28.3105 12.3208 32.5648 13.4974C37.5373 10.0986 39.7148 10.8176 39.7148 10.8176C40.6768 13.0092 40.7698 15.4876 39.9748 17.746C41.7281 19.6567 42.6824 22.1729 42.6398 24.7724C42.6398 34.8055 36.5623 37.0279 30.7774 37.6815C31.3978 38.3139 31.8757 39.0732 32.1785 39.9078C32.4814 40.7423 32.602 41.6327 32.5323 42.5183C32.5323 46.0152 32.4998 48.8257 32.4998 49.7082C32.4998 50.3945 32.9873 51.2115 34.2873 50.9501C40.1338 48.9705 45.0904 44.9661 48.2724 39.6516C51.4544 34.337 52.6546 28.0583 51.6588 21.9362C50.663 15.8142 47.536 10.2472 42.836 6.22906C38.136 2.21095 32.1689 0.00322866 25.9999 0Z" fill="#1E204C"/>
</svg>
